<?xml version="1.0" encoding="utf-8"?>
<svg xmlns="http://www.w3.org/2000/svg" id="Layer_2" data-name="Layer 2" viewBox="0 0 512 512">
  <defs>
    <style>
      .cls-1 {
        fill: #0254ec;
        stroke: #0254ec;
        stroke-miterlimit: 10;
      }

      .cls-2 {
        fill: #fff;
        stroke-width: 0px;
      }
    </style>
  </defs>
  <g id="Layer_1-2" data-name="Layer 1">
    <g>
      <circle class="cls-2" cx="256" cy="256" r="256"/>
      <path class="cls-1" d="m304.27,211.24c25.47,25.89,75.25,39.14,104.83,45.01,4.11.82,4.06,6.72-.06,7.47-29.67,5.38-79.66,17.82-105.55,43.29-24.37,23.96-37.54,69.48-43.9,99.4-.88,4.16-6.88,3.98-7.5-.23-4.11-28-15.09-70.2-44.36-99.96-25.47-25.89-75.25-39.15-104.83-45.02-4.11-.82-4.06-6.72.06-7.47,29.67-5.38,79.66-17.82,105.55-43.28,25.89-25.47,39.14-75.25,45.01-104.83.82-4.11,6.72-4.06,7.47.06,5.38,29.67,17.81,79.66,43.28,105.55Z"/>
    </g>
  </g>
</svg>